<mxfile host="app.diagrams.net" modified="2024-01-30T15:15:56.853Z" agent="Mozilla/5.0 (X11; Ubuntu; Linux x86_64; rv:122.0) Gecko/20100101 Firefox/122.0" etag="IxMXU6Blv6DByam-u358" version="23.0.2" type="github">
  <diagram name="Page-1" id="AQnmTH0_qh68zYkQemqw">
    <mxGraphModel dx="1141" dy="621" grid="1" gridSize="10" guides="1" tooltips="1" connect="1" arrows="1" fold="1" page="1" pageScale="1" pageWidth="850" pageHeight="1400" math="0" shadow="0">
      <root>
        <mxCell id="0" />
        <mxCell id="1" parent="0" />
        <mxCell id="zyU8qcK_vowsJ__0V0aZ-1" value="E - Commerce" style="text;align=center;fontStyle=1;verticalAlign=middle;spacingLeft=3;spacingRight=3;strokeColor=none;rotatable=0;points=[[0,0.5],[1,0.5]];portConstraint=eastwest;html=1;" parent="1" vertex="1">
          <mxGeometry x="340" width="110" height="80" as="geometry" />
        </mxCell>
        <mxCell id="zyU8qcK_vowsJ__0V0aZ-6" value="whole site" style="swimlane;fontStyle=1;align=center;verticalAlign=top;childLayout=stackLayout;horizontal=1;startSize=20;horizontalStack=0;resizeParent=1;resizeParentMax=0;resizeLast=0;collapsible=1;marginBottom=0;whiteSpace=wrap;html=1;" parent="1" vertex="1">
          <mxGeometry x="830" y="70" width="230" height="380" as="geometry" />
        </mxCell>
        <mxCell id="zyU8qcK_vowsJ__0V0aZ-7" value="&lt;div&gt;responsibility:&lt;/div&gt;&lt;div&gt;1. contains segments and product under the segments&lt;/div&gt;&lt;div&gt;2. contains stores&lt;/div&gt;&lt;div&gt;3. let customer search&lt;/div&gt;&lt;div&gt;4. let stores access customer info to grant discount?, or do that via site&lt;/div&gt;&lt;div&gt;5. contains customer info, require customer info&lt;br&gt;&lt;/div&gt;&lt;div&gt;&lt;br&gt;&lt;/div&gt;&lt;div&gt;7. contains segments page for browsing&lt;br&gt;&lt;/div&gt;&lt;div&gt;- segments: List[segment]&lt;/div&gt;&lt;div&gt;- products: List[Product]&lt;br&gt;&lt;/div&gt;&lt;div&gt;&lt;br&gt;&lt;/div&gt;" style="text;strokeColor=none;fillColor=none;align=left;verticalAlign=top;spacingLeft=4;spacingRight=4;overflow=hidden;rotatable=0;points=[[0,0.5],[1,0.5]];portConstraint=eastwest;whiteSpace=wrap;html=1;" parent="zyU8qcK_vowsJ__0V0aZ-6" vertex="1">
          <mxGeometry y="20" width="230" height="200" as="geometry" />
        </mxCell>
        <mxCell id="zyU8qcK_vowsJ__0V0aZ-8" value="" style="line;strokeWidth=1;fillColor=none;align=left;verticalAlign=middle;spacingTop=-1;spacingLeft=3;spacingRight=3;rotatable=0;labelPosition=right;points=[];portConstraint=eastwest;strokeColor=inherit;" parent="zyU8qcK_vowsJ__0V0aZ-6" vertex="1">
          <mxGeometry y="220" width="230" height="8" as="geometry" />
        </mxCell>
        <mxCell id="zyU8qcK_vowsJ__0V0aZ-9" value="&lt;div&gt;+ getSegmentTree(Segment): List[Segment)&lt;/div&gt;&lt;div&gt;+ searchResutSeg(List[Segment]):&lt;/div&gt;&lt;div&gt;List[Product]&lt;/div&gt;&lt;div&gt;+searchResultDes(List[String]):&lt;/div&gt;&lt;div&gt;List[Product]&lt;/div&gt;&lt;div&gt;+searchResultNum(Int): Option[Product]&lt;br&gt;&lt;/div&gt;" style="text;strokeColor=none;fillColor=none;align=left;verticalAlign=top;spacingLeft=4;spacingRight=4;overflow=hidden;rotatable=0;points=[[0,0.5],[1,0.5]];portConstraint=eastwest;whiteSpace=wrap;html=1;" parent="zyU8qcK_vowsJ__0V0aZ-6" vertex="1">
          <mxGeometry y="228" width="230" height="152" as="geometry" />
        </mxCell>
        <mxCell id="zyU8qcK_vowsJ__0V0aZ-10" value="&lt;div&gt;«trait»&lt;/div&gt;&lt;div&gt;&lt;b&gt;customer&lt;/b&gt;&lt;/div&gt;&lt;div&gt;&lt;b&gt;responsibility:&lt;/b&gt;&lt;/div&gt;&lt;div&gt;&lt;b&gt;1. search products&lt;/b&gt;&lt;/div&gt;&lt;div&gt;&lt;b&gt;2. make orders&lt;/b&gt;&lt;/div&gt;&lt;div&gt;&lt;b&gt;3. log in / register&lt;/b&gt;&lt;/div&gt;&lt;div&gt;&lt;b&gt;4.add things to shopping cart&lt;/b&gt;&lt;/div&gt;&lt;div&gt;&lt;b&gt;5. have info, view history, order history, business info ...&lt;br&gt;&lt;/b&gt;&lt;/div&gt;&lt;div&gt;&lt;b&gt;can check order progress&lt;br&gt;&lt;/b&gt;&lt;/div&gt;&lt;div&gt;&lt;b&gt;&lt;br&gt;&lt;/b&gt;&lt;/div&gt;&lt;div&gt;&lt;b&gt;&lt;br&gt;&lt;/b&gt;&lt;/div&gt;" style="html=1;whiteSpace=wrap;" parent="1" vertex="1">
          <mxGeometry x="135" y="180" width="110" height="240" as="geometry" />
        </mxCell>
        <mxCell id="zyU8qcK_vowsJ__0V0aZ-16" value="private customer" style="swimlane;fontStyle=1;align=center;verticalAlign=top;childLayout=stackLayout;horizontal=1;startSize=26;horizontalStack=0;resizeParent=1;resizeParentMax=0;resizeLast=0;collapsible=1;marginBottom=0;whiteSpace=wrap;html=1;" parent="1" vertex="1">
          <mxGeometry x="20" y="480" width="160" height="86" as="geometry" />
        </mxCell>
        <mxCell id="zyU8qcK_vowsJ__0V0aZ-17" value="+ field: type" style="text;strokeColor=none;fillColor=none;align=left;verticalAlign=top;spacingLeft=4;spacingRight=4;overflow=hidden;rotatable=0;points=[[0,0.5],[1,0.5]];portConstraint=eastwest;whiteSpace=wrap;html=1;" parent="zyU8qcK_vowsJ__0V0aZ-16" vertex="1">
          <mxGeometry y="26" width="160" height="26" as="geometry" />
        </mxCell>
        <mxCell id="zyU8qcK_vowsJ__0V0aZ-18" value="" style="line;strokeWidth=1;fillColor=none;align=left;verticalAlign=middle;spacingTop=-1;spacingLeft=3;spacingRight=3;rotatable=0;labelPosition=right;points=[];portConstraint=eastwest;strokeColor=inherit;" parent="zyU8qcK_vowsJ__0V0aZ-16" vertex="1">
          <mxGeometry y="52" width="160" height="8" as="geometry" />
        </mxCell>
        <mxCell id="zyU8qcK_vowsJ__0V0aZ-19" value="+ method(type): type" style="text;strokeColor=none;fillColor=none;align=left;verticalAlign=top;spacingLeft=4;spacingRight=4;overflow=hidden;rotatable=0;points=[[0,0.5],[1,0.5]];portConstraint=eastwest;whiteSpace=wrap;html=1;" parent="zyU8qcK_vowsJ__0V0aZ-16" vertex="1">
          <mxGeometry y="60" width="160" height="26" as="geometry" />
        </mxCell>
        <mxCell id="zyU8qcK_vowsJ__0V0aZ-20" value="business customer" style="swimlane;fontStyle=1;align=center;verticalAlign=top;childLayout=stackLayout;horizontal=1;startSize=26;horizontalStack=0;resizeParent=1;resizeParentMax=0;resizeLast=0;collapsible=1;marginBottom=0;whiteSpace=wrap;html=1;" parent="1" vertex="1">
          <mxGeometry x="220" y="480" width="160" height="86" as="geometry" />
        </mxCell>
        <mxCell id="zyU8qcK_vowsJ__0V0aZ-21" value="+ field: type" style="text;strokeColor=none;fillColor=none;align=left;verticalAlign=top;spacingLeft=4;spacingRight=4;overflow=hidden;rotatable=0;points=[[0,0.5],[1,0.5]];portConstraint=eastwest;whiteSpace=wrap;html=1;" parent="zyU8qcK_vowsJ__0V0aZ-20" vertex="1">
          <mxGeometry y="26" width="160" height="26" as="geometry" />
        </mxCell>
        <mxCell id="zyU8qcK_vowsJ__0V0aZ-22" value="" style="line;strokeWidth=1;fillColor=none;align=left;verticalAlign=middle;spacingTop=-1;spacingLeft=3;spacingRight=3;rotatable=0;labelPosition=right;points=[];portConstraint=eastwest;strokeColor=inherit;" parent="zyU8qcK_vowsJ__0V0aZ-20" vertex="1">
          <mxGeometry y="52" width="160" height="8" as="geometry" />
        </mxCell>
        <mxCell id="zyU8qcK_vowsJ__0V0aZ-23" value="+ method(type): type" style="text;strokeColor=none;fillColor=none;align=left;verticalAlign=top;spacingLeft=4;spacingRight=4;overflow=hidden;rotatable=0;points=[[0,0.5],[1,0.5]];portConstraint=eastwest;whiteSpace=wrap;html=1;" parent="zyU8qcK_vowsJ__0V0aZ-20" vertex="1">
          <mxGeometry y="60" width="160" height="26" as="geometry" />
        </mxCell>
        <mxCell id="zyU8qcK_vowsJ__0V0aZ-24" value="&lt;div&gt;unregistered customer&lt;br&gt;&lt;/div&gt;&lt;div&gt;&lt;br&gt;&lt;/div&gt;" style="swimlane;fontStyle=1;align=center;verticalAlign=top;childLayout=stackLayout;horizontal=1;startSize=26;horizontalStack=0;resizeParent=1;resizeParentMax=0;resizeLast=0;collapsible=1;marginBottom=0;whiteSpace=wrap;html=1;" parent="1" vertex="1">
          <mxGeometry x="110" y="610" width="160" height="86" as="geometry" />
        </mxCell>
        <mxCell id="zyU8qcK_vowsJ__0V0aZ-25" value="+ field: type" style="text;strokeColor=none;fillColor=none;align=left;verticalAlign=top;spacingLeft=4;spacingRight=4;overflow=hidden;rotatable=0;points=[[0,0.5],[1,0.5]];portConstraint=eastwest;whiteSpace=wrap;html=1;" parent="zyU8qcK_vowsJ__0V0aZ-24" vertex="1">
          <mxGeometry y="26" width="160" height="26" as="geometry" />
        </mxCell>
        <mxCell id="zyU8qcK_vowsJ__0V0aZ-26" value="" style="line;strokeWidth=1;fillColor=none;align=left;verticalAlign=middle;spacingTop=-1;spacingLeft=3;spacingRight=3;rotatable=0;labelPosition=right;points=[];portConstraint=eastwest;strokeColor=inherit;" parent="zyU8qcK_vowsJ__0V0aZ-24" vertex="1">
          <mxGeometry y="52" width="160" height="8" as="geometry" />
        </mxCell>
        <mxCell id="zyU8qcK_vowsJ__0V0aZ-27" value="+ method(type): type" style="text;strokeColor=none;fillColor=none;align=left;verticalAlign=top;spacingLeft=4;spacingRight=4;overflow=hidden;rotatable=0;points=[[0,0.5],[1,0.5]];portConstraint=eastwest;whiteSpace=wrap;html=1;" parent="zyU8qcK_vowsJ__0V0aZ-24" vertex="1">
          <mxGeometry y="60" width="160" height="26" as="geometry" />
        </mxCell>
        <mxCell id="zyU8qcK_vowsJ__0V0aZ-30" value="" style="endArrow=block;dashed=1;endFill=0;endSize=12;html=1;rounded=0;exitX=0.5;exitY=0;exitDx=0;exitDy=0;entryX=1;entryY=0.5;entryDx=0;entryDy=0;" parent="1" source="zyU8qcK_vowsJ__0V0aZ-20" target="zyU8qcK_vowsJ__0V0aZ-10" edge="1">
          <mxGeometry width="160" relative="1" as="geometry">
            <mxPoint x="330" y="480" as="sourcePoint" />
            <mxPoint x="490" y="480" as="targetPoint" />
          </mxGeometry>
        </mxCell>
        <mxCell id="zyU8qcK_vowsJ__0V0aZ-31" value="" style="endArrow=block;dashed=1;endFill=0;endSize=12;html=1;rounded=0;exitX=0.544;exitY=-0.023;exitDx=0;exitDy=0;exitPerimeter=0;entryX=0.427;entryY=0.993;entryDx=0;entryDy=0;entryPerimeter=0;" parent="1" source="zyU8qcK_vowsJ__0V0aZ-24" target="zyU8qcK_vowsJ__0V0aZ-10" edge="1">
          <mxGeometry width="160" relative="1" as="geometry">
            <mxPoint x="350" y="480" as="sourcePoint" />
            <mxPoint x="510" y="480" as="targetPoint" />
            <Array as="points" />
          </mxGeometry>
        </mxCell>
        <mxCell id="zyU8qcK_vowsJ__0V0aZ-32" value="" style="endArrow=block;dashed=1;endFill=0;endSize=12;html=1;rounded=0;exitX=0.5;exitY=0;exitDx=0;exitDy=0;entryX=0;entryY=0.5;entryDx=0;entryDy=0;" parent="1" source="zyU8qcK_vowsJ__0V0aZ-16" target="zyU8qcK_vowsJ__0V0aZ-10" edge="1">
          <mxGeometry width="160" relative="1" as="geometry">
            <mxPoint x="330" y="480" as="sourcePoint" />
            <mxPoint x="490" y="480" as="targetPoint" />
          </mxGeometry>
        </mxCell>
        <mxCell id="zyU8qcK_vowsJ__0V0aZ-37" value="order" style="swimlane;fontStyle=1;align=center;verticalAlign=top;childLayout=stackLayout;horizontal=1;startSize=26;horizontalStack=0;resizeParent=1;resizeParentMax=0;resizeLast=0;collapsible=1;marginBottom=0;whiteSpace=wrap;html=1;" parent="1" vertex="1">
          <mxGeometry x="560" y="340" width="160" height="174" as="geometry" />
        </mxCell>
        <mxCell id="zyU8qcK_vowsJ__0V0aZ-38" value="&lt;div&gt;1. order info&lt;/div&gt;&lt;div&gt;2.product info&lt;/div&gt;&lt;div&gt;3.customer info(can be autofilled by logged in customer&lt;/div&gt;&lt;div&gt;&lt;br&gt;&lt;/div&gt;" style="text;strokeColor=none;fillColor=none;align=left;verticalAlign=top;spacingLeft=4;spacingRight=4;overflow=hidden;rotatable=0;points=[[0,0.5],[1,0.5]];portConstraint=eastwest;whiteSpace=wrap;html=1;" parent="zyU8qcK_vowsJ__0V0aZ-37" vertex="1">
          <mxGeometry y="26" width="160" height="114" as="geometry" />
        </mxCell>
        <mxCell id="zyU8qcK_vowsJ__0V0aZ-39" value="" style="line;strokeWidth=1;fillColor=none;align=left;verticalAlign=middle;spacingTop=-1;spacingLeft=3;spacingRight=3;rotatable=0;labelPosition=right;points=[];portConstraint=eastwest;strokeColor=inherit;" parent="zyU8qcK_vowsJ__0V0aZ-37" vertex="1">
          <mxGeometry y="140" width="160" height="8" as="geometry" />
        </mxCell>
        <mxCell id="zyU8qcK_vowsJ__0V0aZ-40" value="+ method(type): type" style="text;strokeColor=none;fillColor=none;align=left;verticalAlign=top;spacingLeft=4;spacingRight=4;overflow=hidden;rotatable=0;points=[[0,0.5],[1,0.5]];portConstraint=eastwest;whiteSpace=wrap;html=1;" parent="zyU8qcK_vowsJ__0V0aZ-37" vertex="1">
          <mxGeometry y="148" width="160" height="26" as="geometry" />
        </mxCell>
        <mxCell id="zyU8qcK_vowsJ__0V0aZ-41" value="store" style="swimlane;fontStyle=1;align=center;verticalAlign=top;childLayout=stackLayout;horizontal=1;startSize=26;horizontalStack=0;resizeParent=1;resizeParentMax=0;resizeLast=0;collapsible=1;marginBottom=0;whiteSpace=wrap;html=1;" parent="1" vertex="1">
          <mxGeometry x="480" y="566" width="190" height="386" as="geometry" />
        </mxCell>
        <mxCell id="zyU8qcK_vowsJ__0V0aZ-42" value="&lt;div&gt;responsibility&lt;/div&gt;&lt;div&gt;1.&lt;/div&gt;&lt;div&gt;add / remove product&lt;/div&gt;&lt;div&gt;2. edit product info, segments etc.(not change the program?)&lt;/div&gt;&lt;div&gt;3.offer discount to certain type of customers(via edit product info?)&lt;/div&gt;&lt;div&gt;4. collect customer info to make recommendation&lt;/div&gt;&lt;div&gt;-segments: Buffer[Segment]&lt;br&gt;&lt;/div&gt;&lt;div&gt;- products: Buffer[Product]&lt;/div&gt;&lt;div&gt;- name: String&lt;/div&gt;&lt;div&gt;- Bunddles: Buffer[Buffer[product]]&lt;br&gt;&lt;/div&gt;&lt;div&gt;&lt;br&gt;&lt;/div&gt;" style="text;strokeColor=none;fillColor=none;align=left;verticalAlign=top;spacingLeft=4;spacingRight=4;overflow=hidden;rotatable=0;points=[[0,0.5],[1,0.5]];portConstraint=eastwest;whiteSpace=wrap;html=1;" parent="zyU8qcK_vowsJ__0V0aZ-41" vertex="1">
          <mxGeometry y="26" width="190" height="244" as="geometry" />
        </mxCell>
        <mxCell id="zyU8qcK_vowsJ__0V0aZ-43" value="" style="line;strokeWidth=1;fillColor=none;align=left;verticalAlign=middle;spacingTop=-1;spacingLeft=3;spacingRight=3;rotatable=0;labelPosition=right;points=[];portConstraint=eastwest;strokeColor=inherit;" parent="zyU8qcK_vowsJ__0V0aZ-41" vertex="1">
          <mxGeometry y="270" width="190" height="8" as="geometry" />
        </mxCell>
        <mxCell id="zyU8qcK_vowsJ__0V0aZ-44" value="&lt;div&gt;- giveCoupon(c: Coupon): unit&lt;/div&gt;&lt;div&gt;-addProduct(p: Product):&lt;/div&gt;&lt;div&gt;Unit&lt;/div&gt;&lt;div&gt;-removeProduct(p:Product):&lt;div&gt;Unit&lt;/div&gt;&lt;div&gt;- editProductInfo(p: Product): Unit&lt;/div&gt;&lt;div&gt;+ GetProducts: Array[Product]&lt;br&gt;&lt;/div&gt;&lt;/div&gt;" style="text;strokeColor=none;fillColor=none;align=left;verticalAlign=top;spacingLeft=4;spacingRight=4;overflow=hidden;rotatable=0;points=[[0,0.5],[1,0.5]];portConstraint=eastwest;whiteSpace=wrap;html=1;" parent="zyU8qcK_vowsJ__0V0aZ-41" vertex="1">
          <mxGeometry y="278" width="190" height="108" as="geometry" />
        </mxCell>
        <mxCell id="zyU8qcK_vowsJ__0V0aZ-46" value="product" style="swimlane;fontStyle=1;align=center;verticalAlign=top;childLayout=stackLayout;horizontal=1;startSize=26;horizontalStack=0;resizeParent=1;resizeParentMax=0;resizeLast=0;collapsible=1;marginBottom=0;whiteSpace=wrap;html=1;" parent="1" vertex="1">
          <mxGeometry x="160" y="900" width="160" height="338" as="geometry" />
        </mxCell>
        <mxCell id="zyU8qcK_vowsJ__0V0aZ-47" value="&lt;div&gt;~segments: Buffer[segment]&lt;/div&gt;&lt;div&gt;-manufacturer: Segment&lt;/div&gt;&lt;div&gt;~name: String&lt;/div&gt;&lt;div&gt;~productNumber: Int&lt;/div&gt;&lt;div&gt;~description: String&lt;/div&gt;&lt;div&gt;~images: Buffer[Image]&lt;br&gt;&lt;/div&gt;&lt;div&gt;&lt;br&gt;&lt;/div&gt;&lt;div&gt;&lt;br&gt;&lt;/div&gt;&lt;div&gt;&lt;br&gt;&lt;/div&gt;" style="text;strokeColor=none;fillColor=none;align=left;verticalAlign=top;spacingLeft=4;spacingRight=4;overflow=hidden;rotatable=0;points=[[0,0.5],[1,0.5]];portConstraint=eastwest;whiteSpace=wrap;html=1;" parent="zyU8qcK_vowsJ__0V0aZ-46" vertex="1">
          <mxGeometry y="26" width="160" height="174" as="geometry" />
        </mxCell>
        <mxCell id="zyU8qcK_vowsJ__0V0aZ-48" value="" style="line;strokeWidth=1;fillColor=none;align=left;verticalAlign=middle;spacingTop=-1;spacingLeft=3;spacingRight=3;rotatable=0;labelPosition=right;points=[];portConstraint=eastwest;strokeColor=inherit;" parent="zyU8qcK_vowsJ__0V0aZ-46" vertex="1">
          <mxGeometry y="200" width="160" height="8" as="geometry" />
        </mxCell>
        <mxCell id="zyU8qcK_vowsJ__0V0aZ-49" value="+ method(type): type" style="text;strokeColor=none;fillColor=none;align=left;verticalAlign=top;spacingLeft=4;spacingRight=4;overflow=hidden;rotatable=0;points=[[0,0.5],[1,0.5]];portConstraint=eastwest;whiteSpace=wrap;html=1;" parent="zyU8qcK_vowsJ__0V0aZ-46" vertex="1">
          <mxGeometry y="208" width="160" height="130" as="geometry" />
        </mxCell>
        <mxCell id="zyU8qcK_vowsJ__0V0aZ-52" value="&lt;div&gt;&lt;br&gt;&lt;/div&gt;&lt;div&gt;&lt;b&gt;manufacturer&lt;/b&gt;&lt;/div&gt;&lt;div&gt;&lt;b&gt;probably one per product&lt;br&gt;&lt;/b&gt;&lt;/div&gt;" style="html=1;whiteSpace=wrap;" parent="1" vertex="1">
          <mxGeometry x="100" y="820" width="110" height="50" as="geometry" />
        </mxCell>
        <mxCell id="IS-2n0-JCVYMvooGeg_X-1" value="" style="endArrow=block;endSize=16;endFill=0;html=1;rounded=0;exitX=0.5;exitY=0;exitDx=0;exitDy=0;" parent="1" source="zyU8qcK_vowsJ__0V0aZ-52" edge="1">
          <mxGeometry width="160" relative="1" as="geometry">
            <mxPoint x="-130" y="990" as="sourcePoint" />
            <mxPoint x="210" y="760" as="targetPoint" />
            <Array as="points">
              <mxPoint x="110" y="790" />
            </Array>
          </mxGeometry>
        </mxCell>
        <mxCell id="IS-2n0-JCVYMvooGeg_X-7" value="Coupon" style="swimlane;fontStyle=0;childLayout=stackLayout;horizontal=1;startSize=26;fillColor=none;horizontalStack=0;resizeParent=1;resizeParentMax=0;resizeLast=0;collapsible=1;marginBottom=0;whiteSpace=wrap;html=1;" parent="1" vertex="1">
          <mxGeometry x="740" y="651" width="140" height="78" as="geometry" />
        </mxCell>
        <mxCell id="IS-2n0-JCVYMvooGeg_X-8" value="+ product: Product" style="text;strokeColor=none;fillColor=none;align=left;verticalAlign=top;spacingLeft=4;spacingRight=4;overflow=hidden;rotatable=0;points=[[0,0.5],[1,0.5]];portConstraint=eastwest;whiteSpace=wrap;html=1;" parent="IS-2n0-JCVYMvooGeg_X-7" vertex="1">
          <mxGeometry y="26" width="140" height="26" as="geometry" />
        </mxCell>
        <mxCell id="IS-2n0-JCVYMvooGeg_X-9" value="+ percentage: Double" style="text;strokeColor=none;fillColor=none;align=left;verticalAlign=top;spacingLeft=4;spacingRight=4;overflow=hidden;rotatable=0;points=[[0,0.5],[1,0.5]];portConstraint=eastwest;whiteSpace=wrap;html=1;" parent="IS-2n0-JCVYMvooGeg_X-7" vertex="1">
          <mxGeometry y="52" width="140" height="26" as="geometry" />
        </mxCell>
        <mxCell id="IS-2n0-JCVYMvooGeg_X-11" value="Use" style="endArrow=open;endSize=12;dashed=1;html=1;rounded=0;exitX=1.013;exitY=0.083;exitDx=0;exitDy=0;exitPerimeter=0;entryX=0.25;entryY=1;entryDx=0;entryDy=0;" parent="1" source="zyU8qcK_vowsJ__0V0aZ-44" target="IS-2n0-JCVYMvooGeg_X-7" edge="1">
          <mxGeometry width="160" relative="1" as="geometry">
            <mxPoint x="853.04" y="952.9760000000001" as="sourcePoint" />
            <mxPoint x="760" y="760" as="targetPoint" />
            <Array as="points">
              <mxPoint x="780" y="790" />
            </Array>
          </mxGeometry>
        </mxCell>
        <mxCell id="IS-2n0-JCVYMvooGeg_X-14" value="Segment" style="swimlane;fontStyle=1;align=center;verticalAlign=top;childLayout=stackLayout;horizontal=1;startSize=30;horizontalStack=0;resizeParent=1;resizeParentMax=0;resizeLast=0;collapsible=1;marginBottom=0;whiteSpace=wrap;html=1;" parent="1" vertex="1">
          <mxGeometry x="210" y="710" width="160" height="98" as="geometry" />
        </mxCell>
        <mxCell id="IS-2n0-JCVYMvooGeg_X-15" value="&lt;div&gt;+ name: String&lt;/div&gt;&lt;div&gt;+ subSeg: List[Segmetn]&lt;/div&gt;&lt;div&gt;+Parent: Option[Segment]&lt;br&gt;&lt;/div&gt;&lt;div&gt;&lt;br&gt;&lt;/div&gt;" style="text;strokeColor=none;fillColor=none;align=left;verticalAlign=top;spacingLeft=4;spacingRight=4;overflow=hidden;rotatable=0;points=[[0,0.5],[1,0.5]];portConstraint=eastwest;whiteSpace=wrap;html=1;" parent="IS-2n0-JCVYMvooGeg_X-14" vertex="1">
          <mxGeometry y="30" width="160" height="60" as="geometry" />
        </mxCell>
        <mxCell id="IS-2n0-JCVYMvooGeg_X-16" value="" style="line;strokeWidth=1;fillColor=none;align=left;verticalAlign=middle;spacingTop=-1;spacingLeft=3;spacingRight=3;rotatable=0;labelPosition=right;points=[];portConstraint=eastwest;strokeColor=inherit;" parent="IS-2n0-JCVYMvooGeg_X-14" vertex="1">
          <mxGeometry y="90" width="160" height="8" as="geometry" />
        </mxCell>
        <mxCell id="IS-2n0-JCVYMvooGeg_X-17" value="+ method(type): type" style="text;strokeColor=none;fillColor=none;align=left;verticalAlign=top;spacingLeft=4;spacingRight=4;overflow=hidden;rotatable=0;points=[[0,0.5],[1,0.5]];portConstraint=eastwest;whiteSpace=wrap;html=1;" parent="IS-2n0-JCVYMvooGeg_X-14" vertex="1">
          <mxGeometry y="98" width="160" as="geometry" />
        </mxCell>
        <mxCell id="l1AVWMya2zjhXVuBxQVU-1" value="&lt;p style=&quot;margin:0px;margin-top:4px;text-align:center;&quot;&gt;&lt;i&gt;&amp;lt;&amp;lt;trait&amp;gt;&amp;gt;&lt;/i&gt;&lt;/p&gt;&lt;p style=&quot;margin:0px;margin-top:4px;text-align:center;&quot;&gt;&lt;b&gt;Customer&lt;/b&gt;&lt;br&gt;&lt;/p&gt;&lt;hr size=&quot;1&quot;&gt;&lt;p style=&quot;margin:0px;margin-left:4px;&quot;&gt;+ name: Type&lt;br&gt;+ field2: Type&lt;/p&gt;&lt;hr size=&quot;1&quot;&gt;&lt;p style=&quot;margin:0px;margin-left:4px;&quot;&gt;+ method1(Type): Type&lt;br&gt;+ method2(Type, Type): Type&lt;/p&gt;" style="verticalAlign=top;align=left;overflow=fill;fontSize=12;fontFamily=Helvetica;html=1;whiteSpace=wrap;" vertex="1" parent="1">
          <mxGeometry x="310" y="180" width="190" height="140" as="geometry" />
        </mxCell>
      </root>
    </mxGraphModel>
  </diagram>
</mxfile>
